<svg xmlns="http://www.w3.org/2000/svg" viewBox="0 0 64 64" fill="none">
  <!-- Purple circle background -->
  <circle cx="32" cy="32" r="32" fill="#7c3aed"/>
  
  <!-- White scales cutout -->
  <g fill="white" stroke="white" stroke-linecap="round" stroke-linejoin="round">
    <!-- Top pivot -->
    <circle cx="32" cy="14" r="2.5" fill="white" stroke="none"/>
    
    <!-- Center pillar -->
    <rect x="30.5" y="16" width="3" height="28" rx="1.5" stroke="none"/>
    
    <!-- Base -->
    <rect x="23" y="46" width="18" height="3" rx="1.5" stroke="none"/>
    <rect x="27" y="43.5" width="10" height="3.5" rx="1.5" stroke="none"/>
    
    <!-- Crossbeam (tilted — left lower) -->
    <line x1="11" y1="21" x2="53" y2="17" stroke-width="2.5"/>
    
    <!-- Left chains -->
    <line x1="11" y1="21" x2="11" y2="30" stroke-width="1.5"/>
    <line x1="5" y1="30" x2="11" y2="30" stroke-width="1.5"/>
    <line x1="11" y1="30" x2="17" y2="30" stroke-width="1.5"/>
    
    <!-- Left pan -->
    <path d="M4 30 C4 36, 11 38, 11 38 C11 38, 18 36, 18 30" fill="white" stroke="none"/>
    
    <!-- Right chains -->
    <line x1="53" y1="17" x2="53" y2="24" stroke-width="1.5"/>
    <line x1="47" y1="24" x2="53" y2="24" stroke-width="1.5"/>
    <line x1="53" y1="24" x2="59" y2="24" stroke-width="1.5"/>
    
    <!-- Right pan -->
    <path d="M46 24 C46 30, 53 32, 53 32 C53 32, 60 30, 60 24" fill="white" stroke="none"/>
  </g>
</svg>
